<?xml version="1.0" encoding="utf-8"?>
<!-- Generator: Adobe Illustrator 26.3.1, SVG Export Plug-In . SVG Version: 6.00 Build 0)  -->
<svg version="1.1" id="Layer_1" xmlns="http://www.w3.org/2000/svg" xmlns:xlink="http://www.w3.org/1999/xlink" x="0px" y="0px"
	 viewBox="0 0 455 126.6" style="enable-background:new 0 0 455 126.6;" xml:space="preserve">
<style type="text/css">
	.st0{fill:#202632;}
	.st1{fill:#02B77B;}
</style>
<g>
	<polygon class="st0" points="91.8,90.1 103.6,90.1 103.6,68.1 122.7,68.1 122.7,58.4 103.6,58.4 103.6,46.8 125.9,46.8 125.9,36.5 
		91.8,36.5 	"/>
	<path class="st0" d="M137.7,37.7c-3.3,0-6.1,2.7-6.1,6.1c0,3.4,2.8,6.1,6.1,6.1s6.1-2.7,6.1-6.1C143.8,40.5,141,37.7,137.7,37.7z"
		/>
	<path class="st0" d="M173.7,52.9c-4.6,0-8.4,1.9-11.3,4.2l-0.1-0.1v-3.3h-11.1v36.5h11.3V65.6c2-1.6,4.7-3,7.6-3
		c1.6,0,2.9,0.4,3.9,1.6c0.9,1,1.3,2.4,1.3,5.1v20.9h11.3V67.4c0-5.3-1-8.4-3.2-10.8C180.9,54.2,177.5,52.9,173.7,52.9z"/>
	<path class="st0" d="M254.9,52.9c-4.6,0-8.4,1.9-11.3,4.2l-0.1-0.1v-3.3h-11.1v36.5h11.3V65.6c2-1.6,4.7-3,7.6-3
		c1.6,0,2.9,0.4,3.9,1.6c0.9,1,1.3,2.4,1.3,5.1v20.9h11.3V67.4c0-5.3-1-8.4-3.2-10.8C262.1,54.2,258.7,52.9,254.9,52.9z"/>
	<path class="st0" d="M220.4,56.4c-2.9-2.4-7.3-3.5-12.2-3.5c-5.3,0-9.8,1.3-12.7,2.8v0l2.6,8.5c2.4-1,5.1-1.7,8.1-1.7
		c2.7,0,4.6,0.6,5.6,1.6c0.8,0.7,1.4,2.1,1.4,3.9v1.4c-2-0.4-4.1-0.7-6.3-0.7c-3.8,0-7.4,0.7-10.2,2.6c-2.6,1.8-4.4,4.8-4.4,8.8
		c0,3.8,1.6,6.7,4.3,8.5c2.4,1.6,5.3,2.4,8.4,2.4c4.2,0,7.8-1.3,10.2-3h0.1c2,2.1,4.9,2.3,7.9,2.3c0.5,0,0.9,0,1.3-0.1V78.8V66.4
		C224.5,61.8,223.2,58.6,220.4,56.4z M213.2,81.2c-1.3,0.8-3.2,1.5-5.1,1.5c-2.6,0-4.7-1.3-4.7-3.6c0-2.8,2.9-3.7,5.8-3.7
		c1.2,0,2.8,0.1,4,0.5V81.2z"/>
	<path class="st0" d="M295.3,81.4c-6.1,0-10.3-3.9-10.3-9.5c0-5.5,4.2-9.6,10.2-9.6c2.5,0,5.1,0.7,7.6,1.9l2.7-8.9
		c-3-1.5-6.7-2.4-10.8-2.4c-11.4,0-20.9,7.6-20.9,19.1c0,11,8.6,19,20.3,19c4.2,0,8.4-0.9,11.9-2.8l-2.7-8.7
		C300.8,80.7,297.9,81.4,295.3,81.4z"/>
	<path class="st0" d="M327.4,52.9c-10.1,0-19.1,7.6-19.1,19.2C308.3,83.5,317,91,329,91c4.8,0,10.3-1.1,13.9-3.3l-2.5-8
		c-3.2,1.7-6.7,2.6-9.9,2.6c-5.2,0-9.3-2.3-10.6-7.3h24.7c0.1-1,0.2-2.6,0.2-3.9C344.8,58.8,336.4,52.9,327.4,52.9z M319.8,67.8
		c1-4.1,4-6.3,7.5-6.3c3.6,0,6.5,2.4,7.2,6.3H319.8z"/>
	<g>
		<path class="st0" d="M374.2,53.7h-5.9V63h5.9v13.4c0,5.8,1.3,8.8,3.2,10.9c2.3,2.4,5.8,3.6,9.5,3.6c3.2,0,6.5-0.9,8.2-2l0,0
			l-2.5-8c-1,0.3-2,0.5-3,0.5c-3.4,0-4.2-2.7-4.2-6.2V63h9.6v-9.3h-9.6V42.3l-11.3,2.3V53.7"/>
	</g>
	<path class="st1" d="M405.7,78.6c3.3,0,6.1,2.7,6.1,6.1c0,3.4-2.8,6.1-6.1,6.1c-3.3,0-6.1-2.7-6.1-6.1
		C399.7,81.3,402.4,78.6,405.7,78.6z"/>
	<polygon class="st0" points="350.7,90.1 361.9,90.1 361.9,53.7 350.7,56 	"/>
	<polygon class="st0" points="132.1,90.1 143.3,90.1 143.3,53.7 132.1,56 	"/>
	<path class="st1" d="M356.3,37.7c-3.3,0-6.1,2.7-6.1,6.1c0,3.4,2.8,6.1,6.1,6.1c3.3,0,6.1-2.7,6.1-6.1
		C362.4,40.5,359.6,37.7,356.3,37.7z"/>
</g>
<g>
	<g>
		<g>
			<g>
				<g>
					<g>
						<path class="st1" d="M73.6,46.1L62.8,35.6H47.4L36.6,46.1v28.2l37-19.4V46.1z M55.1,52.3c-2.8,0-5.1-2.3-5.1-5.1
							c0-2.8,2.3-5.1,5.1-5.1c2.8,0,5.1,2.3,5.1,5.1C60.2,50.1,57.9,52.3,55.1,52.3z"/>
					</g>
				</g>
				<g>
					<polygon class="st1" points="36.6,83.2 36.6,90.1 73.6,90.1 73.6,63.8 					"/>
				</g>
			</g>
		</g>
	</g>
</g>
<g>
	<path class="st0" d="M408.9,43.8c0-1.1,0.3-2.1,0.8-3c0.5-0.9,1.3-1.7,2.2-2.2c0.9-0.5,2-0.8,3-0.8c1.1,0,2.1,0.3,3,0.8
		c0.9,0.5,1.7,1.3,2.2,2.2c0.5,0.9,0.8,2,0.8,3c0,1.1-0.3,2.1-0.8,3c-0.5,0.9-1.3,1.7-2.2,2.2c-0.9,0.6-2,0.8-3.1,0.8
		c-1.1,0-2.1-0.3-3.1-0.8c-0.9-0.6-1.7-1.3-2.2-2.2C409.2,45.9,408.9,44.9,408.9,43.8z M409.8,43.8c0,0.9,0.2,1.8,0.7,2.6
		c0.5,0.8,1.1,1.4,1.9,1.9c0.8,0.5,1.7,0.7,2.6,0.7c0.9,0,1.8-0.2,2.6-0.7c0.8-0.5,1.4-1.1,1.9-1.9c0.5-0.8,0.7-1.7,0.7-2.6
		c0-0.9-0.2-1.8-0.7-2.6c-0.5-0.8-1.1-1.4-1.9-1.9c-0.8-0.5-1.7-0.7-2.6-0.7c-0.9,0-1.8,0.2-2.6,0.7c-0.8,0.5-1.4,1.1-1.9,1.9
		S409.8,42.9,409.8,43.8z M417.5,42.3c0,0.4-0.1,0.8-0.3,1.2c-0.2,0.3-0.5,0.6-0.9,0.7l1.9,3.2h-1.4l-1.7-2.9h-1v2.9h-1.3v-7.2h2.1
		c0.9,0,1.6,0.2,2,0.5C417.3,41.1,417.5,41.6,417.5,42.3z M414,43.6h0.8c0.4,0,0.8-0.1,1-0.3c0.2-0.2,0.4-0.5,0.4-0.8
		c0-0.4-0.1-0.7-0.3-0.9c-0.2-0.2-0.6-0.3-1.1-0.3H414V43.6z"/>
</g>
</svg>
