<svg width="406" height="165" viewBox="0 0 406 165" fill="none" xmlns="http://www.w3.org/2000/svg">
<rect width="54.7632" height="53.7676" transform="translate(55.5 55.5)" fill="#202024"/>
<g clip-path="url(#clip0_27_344)">
<rect width="28.7632" height="28.7632" transform="translate(68.5 68.002)" fill="#202024"/>
<path d="M82.8815 74.4251L79.9185 70.8017C79.9185 70.8017 74.8289 70.9072 69.7642 73.2649C71.0619 75.2218 73.6362 76.1845 73.6362 76.1845C73.811 74.4605 75.0208 74.0387 78.8566 74.0387L82.8805 96.7653L86.9045 74.0377C90.7412 74.0377 91.9501 74.4605 92.1248 76.1835C92.1248 76.1835 94.6992 75.2199 95.9969 73.264C90.9322 70.9072 85.8426 70.8008 85.8426 70.8008L82.8796 74.4241L82.8815 74.4251Z" fill="white"/>
<path d="M82.8797 68.002C82.8081 68.002 82.7384 68.0029 82.6696 68.0048C78.4882 68.0451 73.6555 68.769 68.5 70.817C68.5 70.817 68.6642 71.329 69.3059 72.4872C74.1033 70.3884 78.7899 69.7211 82.8835 69.7518C82.8959 69.7518 82.9074 69.7518 82.9189 69.7518C87.0029 69.7249 91.6752 70.3942 96.4563 72.4872C97.098 71.3281 97.2623 70.817 97.2623 70.817C92.019 68.7335 87.108 68.0202 82.8797 68.002Z" fill="white"/>
</g>
<path d="M139.054 80.2676V60.5664H146.615C148.1 60.5664 149.354 60.8125 150.375 61.3047C151.404 61.7878 152.184 62.4805 152.712 63.3828C153.241 64.276 153.505 65.3151 153.505 66.5C153.505 67.7031 153.241 68.765 152.712 69.6855C152.193 70.597 151.414 71.3034 150.375 71.8047C149.335 72.306 148.082 72.5566 146.615 72.5566H142.486V80.2676H139.054ZM146.314 69.6719C147.116 69.6719 147.795 69.5488 148.351 69.3027C148.907 69.0475 149.331 68.6875 149.623 68.2227C149.923 67.7487 150.074 67.1745 150.074 66.5C150.074 65.8529 149.928 65.3014 149.636 64.8457C149.345 64.3809 148.916 64.0345 148.351 63.8066C147.786 63.5697 147.107 63.4512 146.314 63.4512H142.486V69.6719H146.314ZM160.875 80.582C159.553 80.582 158.35 80.2812 157.266 79.6797C156.19 79.069 155.343 78.2122 154.723 77.1094C154.103 75.9974 153.793 74.7305 153.793 73.3086C153.793 71.8867 154.098 70.6243 154.709 69.5215C155.32 68.4186 156.167 67.5573 157.252 66.9375C158.337 66.3177 159.549 66.0078 160.889 66.0078C162.247 66.0078 163.464 66.3177 164.539 66.9375C165.615 67.5482 166.453 68.4049 167.055 69.5078C167.665 70.6107 167.971 71.8776 167.971 73.3086C167.971 74.7396 167.661 76.0065 167.041 77.1094C166.43 78.2122 165.583 79.069 164.498 79.6797C163.423 80.2812 162.215 80.582 160.875 80.582ZM160.875 77.7793C161.568 77.7793 162.192 77.6016 162.748 77.2461C163.313 76.8815 163.76 76.362 164.088 75.6875C164.416 75.013 164.58 74.2201 164.58 73.3086C164.58 72.3971 164.416 71.6042 164.088 70.9297C163.769 70.2552 163.327 69.7357 162.762 69.3711C162.206 69.0065 161.577 68.8242 160.875 68.8242C160.182 68.8242 159.553 69.0065 158.988 69.3711C158.432 69.7357 157.99 70.2552 157.662 70.9297C157.343 71.6042 157.184 72.3971 157.184 73.3086C157.184 74.2201 157.348 75.013 157.676 75.6875C158.004 76.3529 158.446 76.8678 159.002 77.2324C159.558 77.597 160.182 77.7793 160.875 77.7793ZM172.558 80.2676L168.046 66.3223H171.355L173.693 74.2246C173.921 74.9993 174.098 75.8014 174.226 76.6309H174.349C174.495 75.8105 174.682 75.0085 174.91 74.2246L177.165 66.3223H179.831L182.128 74.2109C182.365 75.013 182.548 75.8197 182.675 76.6309H182.785C182.912 75.8197 183.094 75.013 183.331 74.2109L185.628 66.3223H188.951L184.466 80.2676H181.294L179.134 72.9531C178.897 72.1419 178.71 71.349 178.574 70.5742H178.437C178.309 71.3581 178.127 72.151 177.89 72.9531L175.716 80.2676H172.558ZM195.787 80.5684C194.392 80.5684 193.176 80.2676 192.137 79.666C191.098 79.0553 190.295 78.1986 189.73 77.0957C189.165 75.9928 188.883 74.7305 188.883 73.3086C188.883 71.8503 189.17 70.5697 189.744 69.4668C190.327 68.3639 191.139 67.5163 192.178 66.9238C193.217 66.3223 194.415 66.0215 195.773 66.0215C197.095 66.0215 198.248 66.3132 199.232 66.8965C200.217 67.4707 200.973 68.2819 201.502 69.3301C202.04 70.3691 202.308 71.5723 202.308 72.9395C202.308 73.1309 202.299 73.3451 202.281 73.582C202.272 73.8099 202.258 74.0378 202.24 74.2656H192.137C192.237 75.0495 192.451 75.7103 192.779 76.248C193.107 76.7858 193.531 77.1823 194.051 77.4375C194.579 77.6927 195.19 77.8203 195.883 77.8203C196.639 77.8203 197.282 77.6471 197.81 77.3008C198.348 76.9453 198.717 76.4668 198.918 75.8652H202.172C202.008 76.804 201.634 77.6289 201.051 78.3398C200.476 79.0417 199.734 79.5885 198.822 79.9805C197.911 80.3724 196.899 80.5684 195.787 80.5684ZM199 71.8457C198.954 71.1712 198.795 70.5833 198.521 70.082C198.257 69.5716 197.883 69.1888 197.4 68.9336C196.917 68.6693 196.361 68.5371 195.732 68.5371C195.149 68.5371 194.607 68.651 194.105 68.8789C193.613 69.0977 193.198 69.4531 192.861 69.9453C192.524 70.4375 192.296 71.071 192.178 71.8457H199ZM204.202 80.2676V66.3223H207.552V69.1113H207.648C207.985 68.1452 208.486 67.4251 209.152 66.9512C209.826 66.4772 210.646 66.2402 211.612 66.2402C211.995 66.2402 212.264 66.2585 212.419 66.2949V69.4395C212.31 69.4212 212.182 69.4076 212.036 69.3984C211.89 69.3802 211.749 69.3711 211.612 69.3711C210.81 69.3711 210.104 69.5352 209.493 69.8633C208.883 70.1914 208.404 70.6608 208.058 71.2715C207.721 71.873 207.552 72.5794 207.552 73.3906V80.2676H204.202ZM217.929 80.2676L213.417 66.3223H216.726L219.064 74.2246C219.292 74.9993 219.469 75.8014 219.597 76.6309H219.72C219.866 75.8105 220.053 75.0085 220.28 74.2246L222.536 66.3223H225.202L227.499 74.2109C227.736 75.013 227.918 75.8197 228.046 76.6309H228.155C228.283 75.8197 228.465 75.013 228.702 74.2109L230.999 66.3223H234.321L229.837 80.2676H226.665L224.505 72.9531C224.268 72.1419 224.081 71.349 223.945 70.5742H223.808C223.68 71.3581 223.498 72.151 223.261 72.9531L221.087 80.2676H217.929ZM238.895 80.5137C238.002 80.5137 237.218 80.3405 236.543 79.9941C235.869 79.6478 235.354 79.1647 234.998 78.5449C234.652 77.916 234.479 77.2005 234.479 76.3984C234.479 75.1771 234.866 74.2383 235.641 73.582C236.416 72.9167 237.505 72.4701 238.909 72.2422L242.053 71.75C242.345 71.7227 242.573 71.6771 242.737 71.6133C242.91 71.5404 243.042 71.4355 243.133 71.2988C243.224 71.153 243.27 70.9753 243.27 70.7656C243.27 70.3737 243.165 70.0228 242.956 69.7129C242.755 69.403 242.459 69.1615 242.067 68.9883C241.675 68.8151 241.206 68.7285 240.659 68.7285C240.157 68.7285 239.72 68.8014 239.346 68.9473C238.972 69.0931 238.676 69.3027 238.457 69.5762C238.239 69.8496 238.102 70.1777 238.047 70.5605H234.821C234.912 69.6309 235.204 68.8242 235.696 68.1406C236.188 67.457 236.858 66.9329 237.706 66.5684C238.562 66.2038 239.56 66.0215 240.7 66.0215C241.894 66.0215 242.928 66.2129 243.803 66.5957C244.678 66.9785 245.348 67.5299 245.813 68.25C246.287 68.9701 246.524 69.8223 246.524 70.8066V80.2676H243.27V78.1484H243.161C242.75 78.9049 242.19 79.4883 241.479 79.8984C240.768 80.3086 239.907 80.5137 238.895 80.5137ZM239.866 77.875C240.577 77.875 241.187 77.7109 241.698 77.3828C242.217 77.0456 242.609 76.5944 242.873 76.0293C243.138 75.4642 243.27 74.8535 243.27 74.1973V73.6504C243.133 73.7415 242.974 73.8145 242.791 73.8691C242.609 73.9238 242.377 73.9785 242.094 74.0332L239.401 74.457C238.918 74.5299 238.526 74.7077 238.225 74.9902C237.924 75.2637 237.774 75.6465 237.774 76.1387C237.774 76.4941 237.856 76.804 238.02 77.0684C238.184 77.3236 238.426 77.5241 238.745 77.6699C239.073 77.8066 239.446 77.875 239.866 77.875ZM252.164 80.2676H248.814V60.5527H252.164V80.2676ZM258.036 80.2676H254.687V60.5527H258.036V80.2676Z" fill="#202024"/>
<path d="M147.722 109.582C145.826 109.582 144.158 109.154 142.718 108.297C141.287 107.431 140.18 106.228 139.396 104.688C138.621 103.147 138.234 101.393 138.234 99.4238C138.234 97.446 138.621 95.6868 139.396 94.1465C140.18 92.597 141.283 91.3893 142.705 90.5234C144.136 89.6576 145.794 89.2246 147.681 89.2246C149.185 89.2246 150.539 89.5117 151.742 90.0859C152.954 90.6602 153.947 91.4759 154.722 92.5332C155.497 93.5905 155.998 94.821 156.226 96.2246H153.41C153.209 95.2858 152.845 94.4792 152.316 93.8047C151.796 93.1211 151.145 92.597 150.361 92.2324C149.577 91.8678 148.697 91.6855 147.722 91.6855C146.419 91.6855 145.266 92.0182 144.263 92.6836C143.27 93.3398 142.5 94.2559 141.953 95.4316C141.406 96.6074 141.132 97.9427 141.132 99.4375C141.132 100.978 141.401 102.331 141.939 103.498C142.486 104.656 143.256 105.549 144.25 106.178C145.243 106.807 146.391 107.121 147.695 107.121C148.716 107.121 149.627 106.925 150.429 106.533C151.24 106.132 151.901 105.581 152.412 104.879C152.931 104.177 153.268 103.384 153.423 102.5H156.267C156.076 103.876 155.606 105.102 154.859 106.178C154.111 107.244 153.127 108.078 151.906 108.68C150.684 109.281 149.29 109.582 147.722 109.582ZM164.3 109.568C162.923 109.568 161.729 109.263 160.718 108.652C159.706 108.042 158.931 107.189 158.393 106.096C157.856 105.002 157.587 103.758 157.587 102.363C157.587 100.905 157.869 99.6335 158.434 98.5488C158.999 97.4642 159.788 96.6302 160.8 96.0469C161.811 95.4635 162.969 95.1719 164.272 95.1719C165.548 95.1719 166.66 95.459 167.608 96.0332C168.556 96.6074 169.285 97.4095 169.796 98.4395C170.306 99.4603 170.561 100.636 170.561 101.967C170.561 102.14 170.557 102.331 170.548 102.541C170.539 102.742 170.525 102.951 170.507 103.17H160.212C160.285 104.045 160.499 104.797 160.854 105.426C161.219 106.046 161.697 106.51 162.29 106.82C162.891 107.121 163.584 107.271 164.368 107.271C165.225 107.271 165.954 107.066 166.555 106.656C167.166 106.237 167.585 105.663 167.813 104.934H170.452C170.27 105.863 169.896 106.679 169.331 107.381C168.775 108.074 168.059 108.611 167.184 108.994C166.318 109.377 165.357 109.568 164.3 109.568ZM167.882 101.051C167.845 100.294 167.677 99.6289 167.376 99.0547C167.075 98.4805 166.651 98.0384 166.104 97.7285C165.567 97.4186 164.942 97.2637 164.231 97.2637C163.557 97.2637 162.937 97.4004 162.372 97.6738C161.807 97.9382 161.337 98.3529 160.964 98.918C160.599 99.4831 160.358 100.194 160.239 101.051H167.882ZM172.633 109.268V95.4727H175.34V98.1523H175.436C175.782 97.2318 176.297 96.5436 176.981 96.0879C177.664 95.6322 178.494 95.4043 179.469 95.4043C179.815 95.4043 180.048 95.4134 180.166 95.4316V98.0156C180.066 97.9974 179.952 97.9837 179.824 97.9746C179.706 97.9655 179.587 97.9609 179.469 97.9609C178.639 97.9609 177.915 98.1341 177.295 98.4805C176.675 98.8177 176.192 99.3008 175.846 99.9297C175.509 100.549 175.34 101.274 175.34 102.104V109.268H172.633ZM187.658 109.445C186.665 109.445 185.872 109.281 185.279 108.953C184.687 108.616 184.259 108.16 183.994 107.586C183.739 107.012 183.611 106.328 183.611 105.535V97.7969H181.219V95.4863H183.611V91.6992H186.332V95.4863H189.504V97.7969H186.332V105.398C186.332 105.909 186.487 106.319 186.797 106.629C187.116 106.93 187.64 107.08 188.369 107.08C188.716 107.08 189.085 107.048 189.477 106.984V109.186C188.893 109.359 188.287 109.445 187.658 109.445ZM192.574 93.3262C192.245 93.3262 191.949 93.2533 191.685 93.1074C191.43 92.9525 191.229 92.7474 191.083 92.4922C190.938 92.2279 190.865 91.9362 190.865 91.6172C190.865 91.2891 190.938 90.9974 191.083 90.7422C191.229 90.4779 191.43 90.2728 191.685 90.127C191.949 89.972 192.245 89.8945 192.574 89.8945C192.902 89.8945 193.193 89.972 193.449 90.127C193.704 90.2728 193.904 90.4779 194.05 90.7422C194.205 90.9974 194.283 91.2891 194.283 91.6172C194.283 91.9362 194.205 92.2279 194.05 92.4922C193.904 92.7474 193.704 92.9525 193.449 93.1074C193.193 93.2533 192.902 93.3262 192.574 93.3262ZM191.22 109.268V95.4727H193.927V109.268H191.22ZM202.342 89.0469C202.579 89.0469 202.83 89.0605 203.094 89.0879C203.359 89.1152 203.614 89.1562 203.86 89.2109H203.887V91.3984C203.587 91.3255 203.249 91.2891 202.876 91.2891C202.11 91.2891 201.563 91.4759 201.235 91.8496C200.916 92.2233 200.756 92.7109 200.756 93.3125V95.4863H203.887V97.7969H200.756V109.268H198.036V97.7969H195.452V95.4863H198.036V93.2988C198.036 92.4694 198.191 91.7402 198.501 91.1113C198.811 90.4733 199.284 89.972 199.922 89.6074C200.561 89.2337 201.367 89.0469 202.342 89.0469ZM206.779 93.3262C206.451 93.3262 206.155 93.2533 205.891 93.1074C205.635 92.9525 205.435 92.7474 205.289 92.4922C205.143 92.2279 205.07 91.9362 205.07 91.6172C205.07 91.2891 205.143 90.9974 205.289 90.7422C205.435 90.4779 205.635 90.2728 205.891 90.127C206.155 89.972 206.451 89.8945 206.779 89.8945C207.107 89.8945 207.399 89.972 207.654 90.127C207.909 90.2728 208.11 90.4779 208.256 90.7422C208.411 90.9974 208.488 91.2891 208.488 91.6172C208.488 91.9362 208.411 92.2279 208.256 92.4922C208.11 92.7474 207.909 92.9525 207.654 93.1074C207.399 93.2533 207.107 93.3262 206.779 93.3262ZM205.426 109.268V95.4727H208.133V109.268H205.426ZM216.903 109.568C215.527 109.568 214.333 109.263 213.321 108.652C212.31 108.042 211.535 107.189 210.997 106.096C210.459 105.002 210.191 103.758 210.191 102.363C210.191 100.905 210.473 99.6335 211.038 98.5488C211.603 97.4642 212.392 96.6302 213.403 96.0469C214.415 95.4635 215.573 95.1719 216.876 95.1719C218.152 95.1719 219.264 95.459 220.212 96.0332C221.16 96.6074 221.889 97.4095 222.4 98.4395C222.91 99.4603 223.165 100.636 223.165 101.967C223.165 102.14 223.161 102.331 223.152 102.541C223.142 102.742 223.129 102.951 223.111 103.17H212.816C212.889 104.045 213.103 104.797 213.458 105.426C213.823 106.046 214.301 106.51 214.894 106.82C215.495 107.121 216.188 107.271 216.972 107.271C217.829 107.271 218.558 107.066 219.159 106.656C219.77 106.237 220.189 105.663 220.417 104.934H223.056C222.874 105.863 222.5 106.679 221.935 107.381C221.379 108.074 220.663 108.611 219.788 108.994C218.922 109.377 217.961 109.568 216.903 109.568ZM220.486 101.051C220.449 100.294 220.28 99.6289 219.98 99.0547C219.679 98.4805 219.255 98.0384 218.708 97.7285C218.17 97.4186 217.546 97.2637 216.835 97.2637C216.161 97.2637 215.541 97.4004 214.976 97.6738C214.411 97.9382 213.941 98.3529 213.568 98.918C213.203 99.4831 212.961 100.194 212.843 101.051H220.486ZM230.623 109.568C229.512 109.568 228.504 109.286 227.602 108.721C226.709 108.146 226.002 107.322 225.483 106.246C224.972 105.161 224.717 103.876 224.717 102.391C224.717 100.951 224.968 99.6836 225.469 98.5898C225.98 97.4961 226.677 96.653 227.561 96.0605C228.454 95.4681 229.48 95.1719 230.637 95.1719C231.33 95.1719 231.977 95.2767 232.579 95.4863C233.18 95.6868 233.713 95.9785 234.178 96.3613C234.652 96.7441 235.035 97.1908 235.327 97.7012H235.409V89.6348H238.129V109.268H235.409V107.039H235.327C235.008 107.586 234.607 108.046 234.123 108.42C233.65 108.794 233.112 109.076 232.51 109.268C231.909 109.468 231.28 109.568 230.623 109.568ZM231.485 107.189C232.278 107.189 232.971 106.993 233.563 106.602C234.165 106.21 234.629 105.654 234.957 104.934C235.295 104.204 235.463 103.357 235.463 102.391C235.463 101.443 235.299 100.604 234.971 99.875C234.643 99.1367 234.178 98.5671 233.577 98.166C232.975 97.765 232.273 97.5645 231.471 97.5645C230.687 97.5645 229.99 97.7604 229.379 98.1523C228.778 98.5443 228.308 99.1003 227.971 99.8203C227.634 100.54 227.465 101.393 227.465 102.377C227.465 103.361 227.638 104.218 227.985 104.947C228.331 105.667 228.805 106.223 229.407 106.615C230.017 106.998 230.71 107.189 231.485 107.189ZM247.536 109.268V89.5527H250.38V109.268H247.536ZM253.491 109.268V95.4727H256.198V97.7148H256.307C256.681 96.9128 257.232 96.2884 257.961 95.8418C258.69 95.3861 259.561 95.1582 260.573 95.1582C261.621 95.1582 262.514 95.3815 263.252 95.8281C264 96.2747 264.56 96.9082 264.934 97.7285C265.308 98.5488 265.494 99.5241 265.494 100.654V109.268H262.774V101.023C262.774 99.9115 262.505 99.0547 261.967 98.4531C261.438 97.8516 260.696 97.5508 259.739 97.5508C259.009 97.5508 258.38 97.7194 257.852 98.0566C257.323 98.3848 256.913 98.8359 256.621 99.4102C256.339 99.9753 256.198 100.604 256.198 101.297V109.268H253.491ZM273.048 109.582C271.244 109.582 269.831 109.176 268.81 108.365C267.798 107.545 267.247 106.378 267.156 104.865H269.863C269.908 105.658 270.2 106.278 270.738 106.725C271.276 107.171 272.041 107.395 273.035 107.395C273.946 107.395 274.648 107.226 275.14 106.889C275.632 106.551 275.874 106.118 275.865 105.59C275.856 105.134 275.751 104.774 275.55 104.51C275.35 104.245 275.017 104.031 274.552 103.867C274.087 103.703 273.408 103.539 272.515 103.375C271.312 103.156 270.364 102.892 269.671 102.582C268.979 102.272 268.468 101.862 268.14 101.352C267.821 100.841 267.657 100.199 267.648 99.4238C267.639 98.6035 267.835 97.8743 268.236 97.2363C268.646 96.5983 269.257 96.097 270.068 95.7324C270.888 95.3587 271.85 95.1719 272.953 95.1719C274.074 95.1719 275.049 95.3496 275.878 95.7051C276.708 96.0514 277.346 96.5573 277.793 97.2227C278.248 97.888 278.485 98.6901 278.503 99.6289H275.865C275.81 98.9089 275.537 98.3529 275.045 97.9609C274.561 97.5599 273.873 97.3594 272.98 97.3594C272.433 97.3594 271.959 97.4323 271.558 97.5781C271.166 97.724 270.865 97.929 270.656 98.1934C270.446 98.4577 270.346 98.7676 270.355 99.123C270.355 99.5241 270.451 99.8385 270.642 100.066C270.834 100.285 271.157 100.472 271.613 100.627C272.069 100.782 272.725 100.937 273.582 101.092C274.821 101.32 275.796 101.589 276.507 101.898C277.227 102.208 277.761 102.623 278.107 103.143C278.453 103.653 278.631 104.309 278.64 105.111C278.649 106.005 278.44 106.784 278.011 107.449C277.583 108.115 276.949 108.639 276.111 109.021C275.281 109.395 274.261 109.582 273.048 109.582ZM285.921 109.445C284.927 109.445 284.134 109.281 283.542 108.953C282.949 108.616 282.521 108.16 282.257 107.586C282.001 107.012 281.874 106.328 281.874 105.535V97.7969H279.481V95.4863H281.874V91.6992H284.595V95.4863H287.766V97.7969H284.595V105.398C284.595 105.909 284.75 106.319 285.059 106.629C285.378 106.93 285.903 107.08 286.632 107.08C286.978 107.08 287.347 107.048 287.739 106.984V109.186C287.156 109.359 286.55 109.445 285.921 109.445ZM293.338 109.527C292.454 109.527 291.675 109.359 291 109.021C290.326 108.684 289.811 108.206 289.455 107.586C289.1 106.966 288.922 106.255 288.922 105.453C288.922 104.268 289.296 103.352 290.043 102.705C290.8 102.049 291.866 101.616 293.242 101.406L296.483 100.914C296.811 100.887 297.066 100.837 297.248 100.764C297.44 100.682 297.581 100.563 297.672 100.408C297.772 100.253 297.822 100.062 297.822 99.834C297.822 99.36 297.699 98.9453 297.453 98.5898C297.216 98.2253 296.874 97.9473 296.428 97.7559C295.99 97.5553 295.466 97.4551 294.856 97.4551C294.291 97.4551 293.794 97.5417 293.365 97.7148C292.937 97.888 292.595 98.1387 292.34 98.4668C292.094 98.7858 291.948 99.1686 291.902 99.6152H289.277C289.36 98.7038 289.633 97.9154 290.098 97.25C290.572 96.5846 291.214 96.0742 292.026 95.7188C292.837 95.3542 293.789 95.1719 294.883 95.1719C296.031 95.1719 297.025 95.3633 297.863 95.7461C298.702 96.1289 299.345 96.6758 299.791 97.3867C300.238 98.0885 300.461 98.9134 300.461 99.8613V109.268H297.822V106.998H297.727C297.326 107.8 296.756 108.424 296.018 108.871C295.289 109.309 294.395 109.527 293.338 109.527ZM294.035 107.299C294.837 107.299 295.521 107.107 296.086 106.725C296.66 106.342 297.093 105.831 297.385 105.193C297.677 104.546 297.822 103.854 297.822 103.115V102.473C297.667 102.582 297.494 102.669 297.303 102.732C297.121 102.787 296.865 102.842 296.537 102.896L293.57 103.348C292.987 103.439 292.513 103.644 292.149 103.963C291.793 104.282 291.615 104.729 291.615 105.303C291.615 105.713 291.711 106.068 291.902 106.369C292.094 106.67 292.376 106.902 292.75 107.066C293.124 107.221 293.552 107.299 294.035 107.299ZM305.636 109.268H302.929V89.5527H305.636V109.268ZM311.071 109.268H308.364V89.5527H311.071V109.268ZM319.842 109.568C318.465 109.568 317.271 109.263 316.26 108.652C315.248 108.042 314.473 107.189 313.936 106.096C313.398 105.002 313.129 103.758 313.129 102.363C313.129 100.905 313.411 99.6335 313.977 98.5488C314.542 97.4642 315.33 96.6302 316.342 96.0469C317.354 95.4635 318.511 95.1719 319.814 95.1719C321.09 95.1719 322.202 95.459 323.15 96.0332C324.098 96.6074 324.827 97.4095 325.338 98.4395C325.848 99.4603 326.104 100.636 326.104 101.967C326.104 102.14 326.099 102.331 326.09 102.541C326.081 102.742 326.067 102.951 326.049 103.17H315.754C315.827 104.045 316.041 104.797 316.396 105.426C316.761 106.046 317.24 106.51 317.832 106.82C318.434 107.121 319.126 107.271 319.91 107.271C320.767 107.271 321.496 107.066 322.098 106.656C322.708 106.237 323.128 105.663 323.355 104.934H325.994C325.812 105.863 325.438 106.679 324.873 107.381C324.317 108.074 323.602 108.611 322.727 108.994C321.861 109.377 320.899 109.568 319.842 109.568ZM323.424 101.051C323.387 100.294 323.219 99.6289 322.918 99.0547C322.617 98.4805 322.193 98.0384 321.646 97.7285C321.109 97.4186 320.484 97.2637 319.773 97.2637C319.099 97.2637 318.479 97.4004 317.914 97.6738C317.349 97.9382 316.88 98.3529 316.506 98.918C316.141 99.4831 315.9 100.194 315.781 101.051H323.424ZM328.175 109.268V95.4727H330.882V98.1523H330.978C331.324 97.2318 331.839 96.5436 332.523 96.0879C333.206 95.6322 334.036 95.4043 335.011 95.4043C335.357 95.4043 335.59 95.4134 335.708 95.4316V98.0156C335.608 97.9974 335.494 97.9837 335.366 97.9746C335.248 97.9655 335.129 97.9609 335.011 97.9609C334.182 97.9609 333.457 98.1341 332.837 98.4805C332.217 98.8177 331.734 99.3008 331.388 99.9297C331.051 100.549 330.882 101.274 330.882 102.104V109.268H328.175Z" fill="#ACACB0"/>
<defs>
<clipPath id="clip0_27_344">
<rect width="28.7632" height="28.7632" fill="white" transform="translate(68.5 68.002)"/>
</clipPath>
</defs>
</svg>
